<svg xmlns="http://www.w3.org/2000/svg" width="166" height="38" fill="none" viewBox="0 0 166 38">
  <path fill="#DA2027" d="M.242 37.402h4.235v-7.18c0-1.348.77-2.09 1.898-2.09.962 0 1.595.605 1.595 1.87v7.4h4.207v-7.18c0-1.348.77-2.09 1.898-2.09.962 0 1.595.605 1.595 1.87v7.4h4.235v-8.115c0-3.109-1.705-4.622-4.07-4.622-1.568 0-3.025.606-4.098 2.064-.605-1.348-1.732-2.064-3.382-2.064-1.925 0-3.218 1.046-3.905 2.229v-1.898H.242v12.406Zm21.12-6.052c0 4.017 2.97 6.327 6.793 6.327 3.822 0 6.792-2.42 6.792-6.464v-.193c0-3.934-2.942-6.382-6.765-6.382-3.85 0-6.82 2.53-6.82 6.492v.22Zm9.268-.082c0 2.063-.853 3.246-2.448 3.246-1.65 0-2.475-1.156-2.475-3.301v-.193c0-2.09.88-3.219 2.475-3.219 1.623 0 2.448 1.156 2.448 3.247v.22Zm6.187 2.145c0 2.916 1.568 4.264 4.373 4.264.99 0 1.815-.22 2.337-.357V34.1c-.385.138-.742.22-1.21.22-.797 0-1.265-.413-1.265-1.32v-5.117H43.5v-2.889h-2.448V22.41l-4.262 1.705v.88h-1.485v2.889h1.485v5.53m8.47 3.988h4.235v-6.96c0-1.595.852-2.338 2.117-2.338 1.238 0 1.788.688 1.788 2.09v7.208h4.235v-8.06c0-3.191-1.65-4.677-4.07-4.677-2.063 0-3.41 1.046-4.098 2.339v-7.95l-4.235 1.733v16.615h.028Zm13.805-6.052c0 4.072 2.86 6.327 6.737 6.327 3.74 0 5.913-1.595 6.298-4.401h-3.988c-.165.825-.77 1.485-2.172 1.485-1.513 0-2.475-.963-2.585-2.586H72.1v-1.127c0-4.457-2.915-6.41-6.325-6.41-3.74 0-6.71 2.503-6.71 6.492v.22Zm4.345-1.568c.22-1.485 1.1-2.338 2.365-2.338 1.375 0 2.117.825 2.172 2.338H63.41Zm10.312 7.62h4.263v-5.887c0-1.98 1.43-2.806 4.015-2.723V24.83c-1.925-.027-3.218.77-4.015 2.641v-2.476h-4.263v12.407Zm8.938-3.934c.082 2.751 2.172 4.237 5.692 4.237 3.438 0 5.638-1.32 5.638-4.264 0-2.669-1.65-3.549-5.115-3.989-1.513-.193-2.09-.413-2.09-1.018 0-.578.467-.963 1.402-.963.963 0 1.43.413 1.595 1.238h3.85c-.275-2.97-2.42-4.016-5.472-4.016-2.86 0-5.308 1.32-5.308 4.071 0 2.586 1.403 3.549 4.73 3.99 1.705.247 2.31.522 2.31 1.127s-.467 1.018-1.512 1.018c-1.21 0-1.623-.495-1.76-1.403h-3.96m12.072-2.146c0 4.017 2.97 6.327 6.793 6.327 3.822 0 6.792-2.42 6.792-6.464v-.193c0-3.934-2.942-6.382-6.765-6.382-3.85 0-6.82 2.53-6.82 6.492v.22Zm9.268-.082c0 2.063-.853 3.246-2.448 3.246-1.65 0-2.475-1.156-2.475-3.301v-.193c0-2.09.88-3.219 2.475-3.219 1.623 0 2.448 1.156 2.448 3.247v.22Zm5.83 6.134h4.262v-6.96c0-1.595.853-2.338 2.118-2.338 1.237 0 1.787.688 1.787 2.09v7.208h4.235v-8.06c0-3.191-1.65-4.677-4.07-4.677-2.062 0-3.41 1.046-4.07 2.339v-1.981h-4.262v12.38Zm55.412-2.558V.704l-6.462 2.587a4.637 4.637 0 0 0-2.778 4.181v30.15h6.463a2.77 2.77 0 0 0 2.777-2.778Zm-21.23-18.129a4.637 4.637 0 0 1 2.778-4.181l6.462-2.586v24.896a2.77 2.77 0 0 1-2.777 2.778h-6.463V16.715Zm-11.99 9.215a4.637 4.637 0 0 1 2.778-4.18l6.462-2.586v15.68a2.77 2.77 0 0 1-2.777 2.778h-6.463V25.931Z"/>
</svg>
